<?xml version="1.0" encoding="utf-8"?>
<!-- Generator: Adobe Illustrator 23.0.3, SVG Export Plug-In . SVG Version: 6.00 Build 0)  -->
<svg version="1.1" id="Layer_1" xmlns="http://www.w3.org/2000/svg" xmlns:xlink="http://www.w3.org/1999/xlink" x="0px" y="0px"
	 viewBox="0 0 650.91 158.55" style="enable-background:new 0 0 650.91 158.55;" xml:space="preserve">
<style type="text/css">
	.st0{fill:#303890;}
	.st1{fill:#8EC342;}
	.st2{fill:#303891;}
	.st3{fill:#92C743;}
	.st4{fill:#91C743;}
	.st5{fill:#323A91;}
	.st6{fill:#8FC640;}
	.st7{fill:#303790;}
	.st8{fill:#92C744;}
</style>
<g>
	<path class="st0" d="M24.67,64.68C16.44,61.61,8.21,58.55,0,55.49C9.85,23.01,36.85,3.67,69.71,2.98
		c29.12-0.61,60.6,19.33,70.56,51.95c10.79,35.33-8.06,69.38-30.14,83.21c-28,17.54-62.04,15.57-87.52-5.81
		c5.43-7.46,10.88-14.95,16.33-22.43c1.03,0.83,2.07,1.64,3.09,2.48c24.17,20.21,65.66,13.75,78.96-21.56
		c3.23-8.58,3.39-17.44,2.11-26.67c-5.52,0.51-10.62,0.99-15.72,1.46c-3.71-12.3-11.64-20.78-23.4-25.78
		c0.8-4.87,1.61-9.74,2.49-15.11c-13.19-2.3-25.7-1.81-37.34,5.13C35.81,37.81,27.52,49.35,24.67,64.68z"/>
	<path class="st1" d="M24.67,64.68c2.84-15.33,11.14-26.87,24.45-34.81c11.63-6.94,24.15-7.43,37.34-5.13
		c-0.89,5.37-1.69,10.24-2.49,15.11c-0.82,2.62-1.64,5.23-2.46,7.82c-23.75-5.41-39.12,16.58-32.24,33.78
		c2.85,11.72,17.27,22.66,33.33,16.88c8.63-3.1,14.45-9.05,16.09-18.45c0.69-4.19,1.39-8.37,2.12-12.76
		c1.86-0.43,4.21-0.96,6.56-1.5c5.1-0.47,10.2-0.95,15.72-1.46c1.29,9.23,1.13,18.09-2.11,26.67
		c-13.29,35.31-54.79,41.76-78.96,21.56c-1.01-0.85-2.06-1.66-3.09-2.48c-1.44-1.98-2.84-4-4.34-5.94
		c-6.45-8.37-9.86-17.79-9.89-28.4C24.7,71.94,24.68,68.31,24.67,64.68z"/>
	<path class="st2" d="M650.66,47.78c0.02,23.19,0.03,46.38,0.06,69.58c0,1.82,0.13,3.63,0.19,5.45c-0.57,8.99-2.84,17.35-8.8,24.42
		c-5.93,7.05-15.03,11.51-23.88,11.32c0-4.53,0-9.09,0-13.79c0.1-0.08,0.33-0.43,0.61-0.47c10.29-1.77,15.66-8.22,16.86-18.24
		c0.69-5.71,0.75-11.49,1.13-17.65c-4.73,1.34-8.59,2.79-12.58,3.5c-17.86,3.18-35.27-10.14-36.32-28.32
		c-0.68-11.76-0.13-23.59-0.13-35.67c4.96,0,9.67,0,14.82,0c0,7.13,0,14.09,0,21.05c0,4-0.02,8,0,12c0.07,9.75,7,16.87,16.47,16.95
		c9.62,0.08,17.21-7.11,17.39-16.83c0.18-9.66,0.04-19.33,0.04-28.99c0-1.3,0-2.6,0-4.3C641.46,47.78,646.06,47.78,650.66,47.78z"/>
	<path class="st3" d="M308.82,73.28c-12.85,8.49-27.9,12.58-41.46,19.85c5.88,7.97,17.86,5.3,26.11-5.82
		c4.13,1.53,8.43,3.12,12.7,4.7c-2.47,12.14-18.17,21.65-31.25,20.46c-16.62-1.51-29.62-15.21-29.95-31.32
		c-0.35-16.8,11.63-31.21,27.67-33.28C288.05,45.88,303.31,54.45,308.82,73.28z M287.85,66.6c-6.69-6.16-14.61-4.74-19.64-1.83
		c-5.5,3.18-8.6,9.27-7.54,14.59C269.57,75.18,278.46,71.01,287.85,66.6z"/>
	<path class="st4" d="M380.42,112.38c-4.66,0-8.96,0-13.43,0c-0.34-1.33-0.66-2.54-1.04-4.04c-0.81,0.19-1.45,0.24-1.99,0.5
		c-8.99,4.35-18.19,5-27.58,1.51c-14.08-5.23-22.85-20.64-20.42-35.73c2.4-14.9,15.82-26.27,30.91-27.07
		c17.43-0.92,30.58,12.2,33.15,24.14c0.35,1.62,0.72,3.27,0.73,4.91c0.08,11.33,0.08,22.66,0.08,33.98
		C380.83,111.06,380.62,111.53,380.42,112.38z M330.77,79.61c-0.17,10.34,6.93,17.85,17.09,18.08c10.3,0.23,18.01-6.99,18.17-17.01
		c0.17-10.58-6.68-17.99-16.86-18.24C338.38,62.19,330.95,69.12,330.77,79.61z"/>
	<path class="st3" d="M453.52,112.39c-5.21,0-9.67,0-14.51,0c-0.11-1.57-0.3-3-0.3-4.43c-0.04-9.66,0.16-19.32-0.09-28.97
		c-0.31-12.21-11.83-19.76-23.26-15.49c-6.34,2.37-10.54,8.05-10.63,14.84c-0.13,9.49-0.04,18.98-0.08,28.47
		c-0.01,1.78-0.18,3.56-0.28,5.51c-5.01,0-9.58,0-14.43,0c-0.09-1.51-0.22-2.79-0.22-4.08c-0.02-9.49-0.06-18.98,0-28.47
		c0.13-18.09,14.04-32.1,31.86-32.16c17.82-0.05,31.75,13.88,31.92,32.04C453.6,90.43,453.52,101.22,453.52,112.39z"/>
	<path class="st3" d="M212.6,62.09c-3.95,2.92-7.67,5.66-11.65,8.6c-4-5.21-8.94-8.5-15.68-8.27c-4.53,0.16-8.37,1.8-11.69,4.88
		c-6.56,6.07-6.3,18.84-0.71,24.6c4.13,4.26,8.96,6.22,14.78,5.73c5.67-0.48,9.7-3.92,13.33-8.29c3.97,2.97,7.65,5.71,11.29,8.43
		c-6.91,11.71-21.18,17.18-34.93,13.69c-12.57-3.19-22.79-15.78-23.67-28.57c-1.29-18.68,10.93-29.78,21.54-33.63
		C188.7,44.36,203.03,49.22,212.6,62.09z"/>
	<path class="st5" d="M560.57,21.62c0-7.56,0-14.47,0-21.62c4.75,0,9.01,0,13.72,0c0,6.98,0,13.91,0,21.42c4.31,0,8.2,0,12.27,0
		c0,4.85,0,9.11,0,13.77c-3.91,0-7.69,0-11.91,0c0,25.79,0,51.19,0,76.98c-4.8,0-9.17,0-14.01,0c0-25.44,0-50.83,0-76.7
		c-4.37,0-8.29,0-12.52,0c0-4.7,0-8.93,0-13.85C552.03,21.62,556.07,21.62,560.57,21.62z"/>
	<path class="st5" d="M520.84,62.26c-3.64,2.73-7.32,5.5-11.28,8.47c-3.93-5.31-8.9-8.56-15.54-8.36
		c-4.65,0.14-8.75,1.77-12.04,5.19c-6.56,6.82-6.42,18.82,0.3,25.29c5.95,5.73,17.85,8.41,27.29-3.42c1.96,1.43,3.94,2.86,5.91,4.32
		c1.84,1.37,3.67,2.76,5.46,4.12c-7.1,11.82-22.19,17.45-35.83,13.28c-13.65-4.18-23.11-17.07-22.86-31.09
		c0.26-15.1,9.85-27.63,23.82-31.39C499.59,45,514.46,50.85,520.84,62.26z"/>
	<path class="st6" d="M235.93,0.13c0,37.51,0,74.59,0,112.03c-4.67,0-9.2,0-14,0c0-37.29,0-74.47,0-112.03
		C226.5,0.13,231.04,0.13,235.93,0.13z"/>
	<path class="st7" d="M546.42,112.34c-4.77,0-9.2,0-13.91,0c0-12.9,0-25.61,0-38.49c4.66,0,9.11,0,13.91,0
		C546.42,86.55,546.42,99.24,546.42,112.34z"/>
	<path class="st8" d="M539.48,66.33c-4.67,0.02-9.26-4.57-9.37-9.36c-0.11-5.06,4.41-9.42,9.68-9.35c4.97,0.07,8.99,4.31,8.96,9.44
		C548.72,62.01,544.41,66.31,539.48,66.33z"/>
	<path class="st0" d="M49.26,81.44c0.18-3.99,1.83-7.31,4.76-10.29c1.31,1.49,2.61,2.97,4.66,5.29c0-6.16,0-11.19,0-16.54
		c4.6,0,8.78,0,13.47,0c0,7.55,0,14.93,0,23.06c3.31-2,5.92-3.57,9.02-5.45c0.33,1.79,0.59,3.25,0.88,4.83c2.17,0,4.11,0,6.39,0
		c0.18-2.06,0.34-3.98,0.54-6.24c2.69,0,5.41,0,8.17,0c0.5,1.24,1.02,2.51,1.53,3.78c-1.64,9.4-7.46,15.35-16.09,18.45
		C66.53,104.1,52.12,93.17,49.26,81.44z"/>
</g>
</svg>
